<svg width="48.000000" height="48.000000" viewBox="0 0 48 48" fill="none" xmlns="http://www.w3.org/2000/svg" xmlns:xlink="http://www.w3.org/1999/xlink">
	<desc>
			Created with Pixso.
	</desc>
	<defs/>
	<rect id="Button" rx="14.000000" width="28.000000" height="28.000000" transform="translate(10.000000 10.000000)" fill="#000000" fill-opacity="0.350000"/>
	<path id="↳ Icon Color" d="M18.8271 18.8274C19.157 18.4973 19.6755 18.4973 20.0056 18.8274L23.9998 22.8213L27.9938 18.8274C28.3237 18.4973 28.8423 18.4973 29.1722 18.8274C29.5022 19.1572 29.5022 19.6758 29.1722 20.0059L25.1782 24L29.1722 27.9939C29.5022 28.324 29.5022 28.8425 29.1722 29.1726C28.8423 29.5024 28.3237 29.5024 27.9938 29.1726L23.9998 25.1785L20.0056 29.1726C19.6755 29.5024 19.157 29.5024 18.8271 29.1726C18.4971 28.8425 18.4971 28.324 18.8271 27.9939L22.821 24L18.8271 20.0059C18.4971 19.6758 18.4971 19.1572 18.8271 18.8274Z" clip-rule="evenodd" fill="#FFFFFF" fill-opacity="1.000000" fill-rule="evenodd"/>
</svg>
