<svg width="258" height="241" viewBox="0 0 258 241" fill="none" xmlns="http://www.w3.org/2000/svg">
<path d="M38.8104 93C39.1464 93 39.4344 93.132 39.6744 93.396C39.9384 93.636 40.0704 93.924 40.0704 94.26V118.38C40.0704 118.716 39.9384 119.016 39.6744 119.28C39.4344 119.52 39.1464 119.64 38.8104 119.64H36.0744C35.7384 119.64 35.4384 119.52 35.1744 119.28C34.9344 119.016 34.8144 118.716 34.8144 118.38V94.26C34.8144 93.924 34.9344 93.636 35.1744 93.396C35.4384 93.132 35.7384 93 36.0744 93H38.8104ZM51.9504 114.492C52.3104 114.492 52.6104 114.624 52.8504 114.888C53.0904 115.128 53.2104 115.416 53.2104 115.752V118.38C53.2104 118.716 53.0904 119.016 52.8504 119.28C52.6104 119.52 52.3104 119.64 51.9504 119.64H43.5624C43.2024 119.64 42.9024 119.52 42.6624 119.28C42.4224 119.016 42.3024 118.716 42.3024 118.38V115.752C42.3024 115.416 42.4224 115.128 42.6624 114.888C42.9024 114.624 43.2024 114.492 43.5624 114.492H51.9504ZM60.6768 93C61.0128 93 61.3008 93.132 61.5408 93.396C61.8048 93.636 61.9368 93.924 61.9368 94.26V118.164C61.9368 118.5 61.8048 118.8 61.5408 119.064C61.3008 119.304 61.0128 119.424 60.6768 119.424H57.9768C57.6408 119.424 57.3408 119.304 57.0768 119.064C56.8368 118.8 56.7168 118.5 56.7168 118.164V94.26C56.7168 93.924 56.8368 93.636 57.0768 93.396C57.3408 93.132 57.6408 93 57.9768 93H60.6768ZM92.2718 93C92.6078 93 92.8958 93.132 93.1358 93.396C93.3998 93.636 93.5318 93.924 93.5318 94.26V118.164C93.5318 118.5 93.3998 118.8 93.1358 119.064C92.8958 119.304 92.6078 119.424 92.2718 119.424H89.5718C89.2358 119.424 88.9358 119.304 88.6718 119.064C88.4318 118.8 88.3118 118.5 88.3118 118.164V102.036L81.6878 110.532C81.4478 110.844 81.1238 111 80.7158 111C80.3078 111 79.9838 110.844 79.7438 110.532L72.9758 102V118.164C72.9758 118.5 72.8438 118.8 72.5798 119.064C72.3398 119.304 72.0518 119.424 71.7158 119.424H69.0158C68.6798 119.424 68.3798 119.304 68.1158 119.064C67.8758 118.8 67.7558 118.5 67.7558 118.164V94.26C67.7558 93.924 67.8758 93.636 68.1158 93.396C68.3798 93.132 68.6798 93 69.0158 93H72.1478C72.5558 93 72.8918 93.168 73.1558 93.504L80.7158 103.512L88.1318 93.504C88.3478 93.168 88.6838 93 89.1398 93H92.2718ZM103.321 93C103.657 93 103.945 93.132 104.185 93.396C104.449 93.636 104.581 93.924 104.581 94.26V118.164C104.581 118.5 104.449 118.8 104.185 119.064C103.945 119.304 103.657 119.424 103.321 119.424H100.621C100.285 119.424 99.9853 119.304 99.7213 119.064C99.4813 118.8 99.3613 118.5 99.3613 118.164V94.26C99.3613 93.924 99.4813 93.636 99.7213 93.396C99.9853 93.132 100.285 93 100.621 93H103.321ZM128.652 93C128.988 93 129.276 93.132 129.516 93.396C129.756 93.636 129.876 93.924 129.876 94.26V96.852C129.876 97.188 129.756 97.488 129.516 97.752C129.276 97.992 128.988 98.112 128.652 98.112H121.56V118.164C121.56 118.5 121.428 118.8 121.164 119.064C120.924 119.304 120.636 119.424 120.3 119.424H117.6C117.24 119.424 116.94 119.304 116.7 119.064C116.46 118.8 116.34 118.5 116.34 118.164V98.112H109.248C108.912 98.112 108.612 97.992 108.348 97.752C108.108 97.488 107.988 97.188 107.988 96.852V94.26C107.988 93.924 108.108 93.636 108.348 93.396C108.612 93.132 108.912 93 109.248 93H128.652ZM150.279 114.312C150.639 114.312 150.939 114.444 151.179 114.708C151.419 114.948 151.539 115.236 151.539 115.572V118.164C151.539 118.5 151.419 118.8 151.179 119.064C150.939 119.304 150.639 119.424 150.279 119.424H134.547C134.211 119.424 133.911 119.304 133.647 119.064C133.407 118.8 133.287 118.5 133.287 118.164V94.26C133.287 93.924 133.407 93.636 133.647 93.396C133.911 93.132 134.211 93 134.547 93H137.247C137.583 93 137.871 93.132 138.111 93.396C138.375 93.636 138.507 93.924 138.507 94.26V114.312H150.279ZM173.842 93C174.202 93 174.502 93.132 174.742 93.396C174.982 93.636 175.102 93.924 175.102 94.26V96.852C175.102 97.188 174.982 97.488 174.742 97.752C174.502 97.992 174.202 98.112 173.842 98.112H160.234V103.62H172.258C172.618 103.62 172.918 103.752 173.158 104.016C173.398 104.256 173.518 104.544 173.518 104.88V107.508C173.518 107.844 173.398 108.144 173.158 108.408C172.918 108.648 172.618 108.768 172.258 108.768H160.234V114.312H173.842C174.202 114.312 174.502 114.444 174.742 114.708C174.982 114.948 175.102 115.236 175.102 115.572V118.164C175.102 118.5 174.982 118.8 174.742 119.064C174.502 119.304 174.202 119.424 173.842 119.424H156.274C155.938 119.424 155.638 119.304 155.374 119.064C155.134 118.8 155.014 118.5 155.014 118.164V94.26C155.014 93.924 155.134 93.636 155.374 93.396C155.638 93.132 155.938 93 156.274 93H173.842ZM196.907 106.356C197.915 107.004 198.683 107.796 199.211 108.732C199.763 109.668 200.039 110.712 200.039 111.864C200.039 114.504 199.019 116.556 196.979 118.02C195.083 119.34 192.527 120 189.311 120C185.639 120 182.819 119.208 180.851 117.624C179.027 116.16 177.983 114.096 177.719 111.432C177.671 111.048 177.779 110.724 178.043 110.46C178.307 110.196 178.619 110.064 178.979 110.064H181.787C182.123 110.064 182.411 110.172 182.651 110.388C182.891 110.604 183.023 110.88 183.047 111.216C183.119 112.416 183.707 113.34 184.811 113.988C185.915 114.612 187.427 114.924 189.347 114.924C190.715 114.924 191.771 114.816 192.515 114.6C193.259 114.36 193.799 114.084 194.135 113.772C194.471 113.436 194.663 113.1 194.711 112.764C194.783 112.428 194.819 112.164 194.819 111.972C194.819 111.444 194.591 111.024 194.135 110.712C193.463 110.256 192.575 109.86 191.471 109.524C190.871 109.332 190.247 109.164 189.599 109.02C188.975 108.852 188.315 108.684 187.619 108.516C186.155 108.204 184.775 107.784 183.479 107.256C182.783 106.968 182.147 106.644 181.571 106.284C180.995 105.924 180.479 105.504 180.023 105.024C178.967 103.968 178.439 102.588 178.439 100.884C178.439 98.532 179.339 96.612 181.139 95.124C182.891 93.708 185.411 93 188.699 93C192.011 93 194.627 93.792 196.547 95.376C198.323 96.84 199.271 98.724 199.391 101.028C199.439 101.364 199.331 101.676 199.067 101.964C198.779 102.204 198.479 102.324 198.167 102.324H195.359C195.047 102.324 194.771 102.228 194.531 102.036C194.315 101.82 194.183 101.556 194.135 101.244C194.111 101.004 194.051 100.752 193.955 100.488C193.883 100.224 193.739 99.96 193.523 99.696C193.307 99.432 193.019 99.192 192.659 98.976C192.299 98.736 191.819 98.532 191.219 98.364C190.499 98.148 189.587 98.04 188.483 98.04C187.355 98.04 186.467 98.16 185.819 98.4C185.123 98.616 184.619 98.868 184.307 99.156C184.019 99.42 183.839 99.672 183.767 99.912C183.647 100.32 183.587 100.704 183.587 101.064C183.587 101.112 183.599 101.184 183.623 101.28C183.647 101.376 183.743 101.508 183.911 101.676C184.103 101.844 184.307 102 184.523 102.144C184.763 102.288 185.039 102.42 185.351 102.54C186.023 102.828 186.851 103.092 187.835 103.332C188.795 103.596 189.803 103.848 190.859 104.088C191.963 104.352 192.995 104.64 193.955 104.952C195.083 105.336 196.067 105.804 196.907 106.356ZM221.692 106.356C222.7 107.004 223.468 107.796 223.996 108.732C224.548 109.668 224.824 110.712 224.824 111.864C224.824 114.504 223.804 116.556 221.764 118.02C219.868 119.34 217.312 120 214.096 120C210.424 120 207.604 119.208 205.636 117.624C203.812 116.16 202.768 114.096 202.504 111.432C202.456 111.048 202.564 110.724 202.828 110.46C203.092 110.196 203.404 110.064 203.764 110.064H206.572C206.908 110.064 207.196 110.172 207.436 110.388C207.676 110.604 207.808 110.88 207.832 111.216C207.904 112.416 208.492 113.34 209.596 113.988C210.7 114.612 212.212 114.924 214.132 114.924C215.5 114.924 216.556 114.816 217.3 114.6C218.044 114.36 218.584 114.084 218.92 113.772C219.256 113.436 219.448 113.1 219.496 112.764C219.568 112.428 219.604 112.164 219.604 111.972C219.604 111.444 219.376 111.024 218.92 110.712C218.248 110.256 217.36 109.86 216.256 109.524C215.656 109.332 215.032 109.164 214.384 109.02C213.76 108.852 213.1 108.684 212.404 108.516C210.94 108.204 209.56 107.784 208.264 107.256C207.568 106.968 206.932 106.644 206.356 106.284C205.78 105.924 205.264 105.504 204.808 105.024C203.752 103.968 203.224 102.588 203.224 100.884C203.224 98.532 204.124 96.612 205.924 95.124C207.676 93.708 210.196 93 213.484 93C216.796 93 219.412 93.792 221.332 95.376C223.108 96.84 224.056 98.724 224.176 101.028C224.224 101.364 224.116 101.676 223.852 101.964C223.564 102.204 223.264 102.324 222.952 102.324H220.144C219.832 102.324 219.556 102.228 219.316 102.036C219.1 101.82 218.968 101.556 218.92 101.244C218.896 101.004 218.836 100.752 218.74 100.488C218.668 100.224 218.524 99.96 218.308 99.696C218.092 99.432 217.804 99.192 217.444 98.976C217.084 98.736 216.604 98.532 216.004 98.364C215.284 98.148 214.372 98.04 213.268 98.04C212.14 98.04 211.252 98.16 210.604 98.4C209.908 98.616 209.404 98.868 209.092 99.156C208.804 99.42 208.624 99.672 208.552 99.912C208.432 100.32 208.372 100.704 208.372 101.064C208.372 101.112 208.384 101.184 208.408 101.28C208.432 101.376 208.528 101.508 208.696 101.676C208.888 101.844 209.092 102 209.308 102.144C209.548 102.288 209.824 102.42 210.136 102.54C210.808 102.828 211.636 103.092 212.62 103.332C213.58 103.596 214.588 103.848 215.644 104.088C216.748 104.352 217.78 104.64 218.74 104.952C219.868 105.336 220.852 105.804 221.692 106.356ZM108.499 138.54C108.739 138.876 108.799 139.248 108.679 139.656L101.083 164.028C101.011 164.292 100.855 164.508 100.615 164.676C100.399 164.844 100.147 164.928 99.8591 164.928H96.7271C96.4631 164.928 96.2111 164.856 95.9711 164.712C95.7551 164.544 95.6111 164.328 95.5391 164.064L90.1391 147.36L84.7751 164.064C84.6791 164.328 84.5231 164.544 84.3071 164.712C84.0911 164.856 83.8391 164.928 83.5511 164.928H80.4191C79.9871 164.928 79.6391 164.76 79.3751 164.424C79.1351 164.016 79.0871 163.632 79.2311 163.272L87.3671 138.864C87.4391 138.6 87.5831 138.396 87.7991 138.252C88.0391 138.084 88.2911 138 88.5551 138H91.7231C92.3471 138 92.7551 138.3 92.9471 138.9L98.2751 155.46L103.315 138.9C103.411 138.636 103.567 138.42 103.783 138.252C104.023 138.084 104.275 138 104.539 138H107.455C107.887 138 108.235 138.18 108.499 138.54ZM79.0151 145.632C79.1591 146.04 79.0991 146.424 78.8351 146.784C78.5711 147.12 78.2231 147.288 77.7911 147.288H74.9471C74.6591 147.288 74.3951 147.204 74.1551 147.036C73.9391 146.868 73.7951 146.652 73.7231 146.388L71.6351 139.656C71.4911 139.248 71.5511 138.876 71.8151 138.54C72.0551 138.18 72.3911 138 72.8231 138H75.7391C76.0271 138 76.2791 138.084 76.4951 138.252C76.7351 138.42 76.8911 138.636 76.9631 138.9L79.0151 145.632ZM130.81 138C131.17 138 131.47 138.132 131.71 138.396C131.95 138.636 132.07 138.924 132.07 139.26V141.852C132.07 142.188 131.95 142.488 131.71 142.752C131.47 142.992 131.17 143.112 130.81 143.112H117.202V148.62H129.226C129.586 148.62 129.886 148.752 130.126 149.016C130.366 149.256 130.486 149.544 130.486 149.88V152.508C130.486 152.844 130.366 153.144 130.126 153.408C129.886 153.648 129.586 153.768 129.226 153.768H117.202V159.312H130.81C131.17 159.312 131.47 159.444 131.71 159.708C131.95 159.948 132.07 160.236 132.07 160.572V163.164C132.07 163.5 131.95 163.8 131.71 164.064C131.47 164.304 131.17 164.424 130.81 164.424H113.242C112.906 164.424 112.606 164.304 112.342 164.064C112.102 163.8 111.982 163.5 111.982 163.164V139.26C111.982 138.924 112.102 138.636 112.342 138.396C112.606 138.132 112.906 138 113.242 138H130.81ZM159.744 162.552C159.864 162.744 159.924 162.948 159.924 163.164C159.924 163.5 159.804 163.8 159.564 164.064C159.324 164.304 159.024 164.424 158.664 164.424H155.676C155.412 164.424 155.172 164.364 154.956 164.244C154.764 164.1 154.62 163.908 154.524 163.668L151.896 157.476H141.708L139.116 163.668C139.02 163.908 138.864 164.1 138.648 164.244C138.456 164.364 138.228 164.424 137.964 164.424H134.976C134.52 164.424 134.172 164.232 133.932 163.848C133.644 163.488 133.608 163.104 133.824 162.696L143.976 138.756C144.072 138.516 144.216 138.336 144.408 138.216C144.624 138.072 144.864 138 145.128 138H148.512C148.776 138 149.004 138.072 149.196 138.216C149.412 138.336 149.568 138.516 149.664 138.756L159.744 162.552ZM143.832 152.472H149.808L146.82 145.308L143.832 152.472ZM185.349 162.48C185.613 162.888 185.625 163.32 185.385 163.776C185.145 164.208 184.785 164.424 184.305 164.424H181.065C180.609 164.424 180.261 164.232 180.021 163.848L174.621 155.244H168.249V163.164C168.249 163.5 168.117 163.8 167.853 164.064C167.613 164.304 167.325 164.424 166.989 164.424H164.289C163.953 164.424 163.653 164.304 163.389 164.064C163.149 163.8 163.029 163.5 163.029 163.164V139.26C163.029 138.924 163.149 138.636 163.389 138.396C163.653 138.132 163.953 138 164.289 138H175.737C178.497 138 180.729 138.78 182.433 140.34C184.161 141.924 185.025 144.06 185.025 146.748C185.025 148.476 184.641 149.964 183.873 151.212C183.129 152.436 182.025 153.36 180.561 153.984C180.465 154.032 180.369 154.08 180.273 154.128C180.177 154.152 180.081 154.188 179.985 154.236L185.349 162.48ZM168.249 150.168H175.269C177.333 150.168 178.737 149.58 179.481 148.404C179.721 147.972 179.841 147.42 179.841 146.748C179.841 145.62 179.469 144.732 178.725 144.084C177.909 143.412 176.805 143.076 175.413 143.076H168.249V150.168Z" fill="black"/>
<path d="M256.5 120.5C256.5 186.127 199.514 239.5 129 239.5C58.4858 239.5 1.5 186.127 1.5 120.5C1.5 54.8728 58.4858 1.5 129 1.5C199.514 1.5 256.5 54.8728 256.5 120.5Z" stroke="black" stroke-width="3"/>
</svg>
