<svg width="213" height="254" viewBox="0 0 213 254" fill="none" xmlns="http://www.w3.org/2000/svg">
<g filter="url(#filter0_ddi_1_13)">
<path d="M81.312 32.328C70.24 39.56 52.672 48.008 28.608 57.672C24.704 68.168 21.312 77.832 18.432 86.664C15.616 95.496 13.28 103.784 11.424 111.528C11.68 106.728 12.704 100.072 14.496 91.56C16.288 82.984 18.848 72.488 22.176 60.072L6.72 65.832C8.384 65.064 10.528 64.072 13.152 62.856C15.84 61.64 19.04 60.104 22.752 58.248C24.352 52.616 25.888 47.368 27.36 42.504C28.896 37.64 30.4 33.032 31.872 28.68C29.12 28.808 26.528 28.968 24.096 29.16C21.728 29.352 19.488 29.608 17.376 29.928L16.416 19.08C17.632 19.016 18.816 18.984 19.968 18.984C21.184 18.984 22.432 18.984 23.712 18.984C32.672 18.984 41.76 19.4 50.976 20.232C60.256 21.064 69.888 22.344 79.872 24.072L81.312 32.328ZM72.48 30.888C62.176 29.352 51.168 28.584 39.456 28.584H35.136L38.976 32.136C37.568 35.08 36.096 38.472 34.56 42.312C33.024 46.088 31.328 50.344 29.472 55.08C49.888 45.224 64.224 37.16 72.48 30.888ZM80.4893 76.296C78.7613 79.368 76.6493 82.376 74.1533 85.32C71.6573 88.2 68.7773 91.08 65.5133 93.96L61.0013 85.704C63.6253 79.24 65.9293 73.224 67.9133 67.656C69.9613 62.088 71.6893 56.808 73.0973 51.816C71.5613 55.464 69.7053 59.24 67.5293 63.144C65.4173 66.984 63.1133 70.76 60.6173 74.472C58.1853 78.184 55.6253 81.704 52.9373 85.032C50.3133 88.36 47.7533 91.304 45.2573 93.864L43.9133 86.76C45.7693 79.016 47.6253 71.816 49.4813 65.16C51.3373 58.44 53.3213 52.072 55.4333 46.056L61.5773 49.32C59.0813 55.336 56.7773 61.16 54.6653 66.792C52.6173 72.424 50.7933 77.928 49.1933 83.304C52.0733 80.424 54.6333 77.608 56.8733 74.856C59.1133 72.104 61.0973 69.384 62.8253 66.696C63.9133 65.032 65.3853 62.536 67.2413 59.208C69.0973 55.816 71.3693 51.528 74.0573 46.344L81.0653 49.512C77.2253 61.032 72.5853 73.224 67.1453 86.088C70.8573 84.552 75.3053 81.288 80.4893 76.296ZM102.508 76.104C100.524 79.304 98.1558 82.632 95.4038 86.088C92.7158 89.48 89.6438 93.096 86.1878 96.936L80.4278 91.368C81.8358 85.544 83.4358 79.848 85.2278 74.28C87.0838 68.712 89.2278 63.112 91.6598 57.48L89.0678 54.888L74.3798 73.8L90.7958 39.24L90.3158 49.608L96.1718 55.08C92.0118 68.2 89.5798 78.696 88.8758 86.568C91.3718 85.288 95.9158 81.8 102.508 76.104ZM129.359 54.792C125.263 60.232 120.783 65.64 115.919 71.016C111.119 76.392 105.807 81.832 99.9833 87.336C99.9193 87.912 99.6953 88.936 99.3113 90.408C98.9273 91.816 98.4473 93.416 97.8713 95.208C97.2953 97 96.6873 98.824 96.0473 100.68C95.4713 102.6 94.8953 104.328 94.3193 105.864C93.8072 107.464 93.3912 108.744 93.0712 109.704C92.6872 110.728 92.4952 111.208 92.4952 111.144C93.7112 104.168 95.1193 95.944 96.7193 86.472C98.3833 77 100.271 65.992 102.383 53.448L111.695 45.384C114.255 45.512 116.975 45.704 119.855 45.96C122.799 46.216 125.935 46.536 129.263 46.92L129.359 54.792ZM123.023 52.008C122.255 51.88 121.295 51.784 120.143 51.72C118.991 51.656 117.679 51.624 116.207 51.624C113.839 51.624 111.759 51.72 109.967 51.912C107.535 61.704 104.335 72.936 100.367 85.608C104.079 80.808 107.791 75.656 111.503 70.152C115.279 64.648 119.119 58.6 123.023 52.008ZM149.809 20.616C148.849 23.112 147.729 26.28 146.449 30.12C145.169 33.96 143.793 38.248 142.321 42.984C140.913 47.656 139.409 52.616 137.809 57.864C136.273 63.112 134.737 68.424 133.201 73.8C131.729 79.112 130.289 84.328 128.881 89.448C127.473 94.568 126.225 99.336 125.137 103.752C127.249 85.128 129.617 68.776 132.241 54.696C134.929 40.616 137.841 28.552 140.977 18.504L149.809 20.616ZM159.054 78.984C156.366 82.12 153.422 85 150.222 87.624C147.022 90.184 143.534 92.616 139.758 94.92L134.382 89.544C136.43 80.968 138.542 73.128 140.718 66.024C142.894 58.92 145.134 52.36 147.438 46.344L155.598 45.864C157.07 47.528 158.414 49.224 159.63 50.952C160.846 52.616 161.902 54.376 162.798 56.232C155.886 63.208 149.71 68.712 144.27 72.744L138.126 87.528C141.454 86.568 144.846 85.384 148.302 83.976C151.758 82.568 155.342 80.904 159.054 78.984ZM153.102 52.296L146.286 67.656C148.014 65.736 149.71 63.624 151.374 61.32C153.038 59.016 154.67 56.488 156.27 53.736L153.102 52.296ZM77.856 226.528C71.968 222.24 66.912 218.56 62.688 215.488C58.464 212.416 54.784 209.76 51.648 207.52C48.576 205.28 45.92 203.392 43.68 201.856C41.44 200.32 39.328 198.912 37.344 197.632C35.424 196.288 33.472 195.008 31.488 193.792C29.568 192.576 27.392 191.168 24.96 189.568C22.464 197.12 20.288 203.968 18.432 210.112C16.576 216.256 15.072 221.728 13.92 226.528C14.112 222.944 14.848 217.92 16.128 211.456C17.408 204.992 19.2 196.992 21.504 187.456C18.944 185.984 16.64 184.704 14.592 183.616C12.544 182.464 10.72 181.536 9.12 180.832C10.848 180.064 13.024 179.072 15.648 177.856C18.272 176.64 21.44 175.104 25.152 173.248C26.624 167.616 28.096 162.368 29.568 157.504C31.104 152.64 32.704 148.032 34.368 143.68C31.616 143.808 29.024 143.968 26.592 144.16C24.16 144.352 21.92 144.608 19.872 144.928L18.816 134.08C20.032 134.016 21.216 133.984 22.368 133.984C23.584 133.984 24.832 133.984 26.112 133.984C35.072 133.984 44.192 134.4 53.472 135.232C62.816 136.064 72.416 137.344 82.272 139.072L83.712 147.328C72.832 154.496 55.232 162.944 30.912 172.672C30.208 174.464 29.504 176.352 28.8 178.336C28.16 180.256 27.488 182.24 26.784 184.288C31.904 187.808 38.688 193.088 47.136 200.128C55.648 207.104 65.888 215.904 77.856 226.528ZM74.784 145.888C69.6 145.12 64.32 144.544 58.944 144.16C53.568 143.776 47.904 143.584 41.952 143.584H37.632L41.28 147.136C39.872 150.08 38.4 153.472 36.864 157.312C35.328 161.088 33.664 165.344 31.872 170.08C42.176 165.088 50.848 160.64 57.888 156.736C64.992 152.768 70.624 149.152 74.784 145.888ZM24.672 175.072C23.264 175.648 21.92 176.192 20.64 176.704C19.36 177.152 18.016 177.6 16.608 178.048C17.504 178.56 18.464 179.104 19.488 179.68C20.576 180.256 21.728 180.928 22.944 181.696C23.2 180.48 23.456 179.36 23.712 178.336C23.968 177.248 24.288 176.16 24.672 175.072ZM86.3978 193.984C83.7098 197.12 80.7658 200 77.5658 202.624C74.3658 205.184 70.8778 207.616 67.1018 209.92L61.7258 204.544C63.7738 195.968 65.8858 188.128 68.0618 181.024C70.2378 173.92 72.4778 167.36 74.7818 161.344L82.9418 160.864C84.4138 162.528 85.7578 164.224 86.9738 165.952C88.1898 167.616 89.2458 169.376 90.1418 171.232C83.2298 178.208 77.0538 183.712 71.6138 187.744L65.4698 202.528C68.7978 201.568 72.1898 200.384 75.6458 198.976C79.1018 197.568 82.6858 195.904 86.3978 193.984ZM80.4458 167.296L73.6298 182.656C75.3578 180.736 77.0538 178.624 78.7178 176.32C80.3818 174.016 82.0138 171.488 83.6138 168.736L80.4458 167.296ZM111.269 142.816L102.821 157.12L103.205 142.624L111.269 142.816ZM104.357 191.296C102.565 194.432 100.421 197.472 97.9245 200.416C95.4285 203.296 92.5485 206.144 89.2845 208.96L84.9645 200.704C85.7325 198.912 86.7245 196.384 87.9405 193.12C89.1565 189.792 90.3725 186.24 91.5885 182.464C92.8685 178.688 94.0525 174.912 95.1405 171.136C96.2925 167.36 97.1885 164.096 97.8285 161.344L104.741 164.512C101.413 176.672 96.8365 188.864 91.0125 201.088C94.7885 199.488 99.2365 196.224 104.357 191.296ZM137.762 188.224C135.202 191.104 132.706 193.6 130.274 195.712C127.906 197.76 125.506 199.488 123.074 200.896C122.626 203.328 122.05 206.304 121.346 209.824C120.642 213.408 119.81 217.664 118.85 222.592L111.458 226.528C110.37 225.12 109.186 223.904 107.906 222.88C106.626 221.92 105.058 221.056 103.202 220.288C101.346 219.52 99.0743 218.784 96.3863 218.08C93.7622 217.376 90.5302 216.64 86.6902 215.872C88.5462 215.552 90.4342 215.296 92.3542 215.104C94.2742 214.976 96.1303 214.912 97.9223 214.912C104.77 214.912 110.21 215.904 114.242 217.888C114.306 217.248 114.498 216.256 114.818 214.912C115.138 213.632 115.458 212.256 115.778 210.784C116.162 209.312 116.514 207.936 116.834 206.656C117.154 205.312 117.346 204.288 117.41 203.584C115.81 204.48 113.826 205.44 111.458 206.464C109.154 207.488 106.434 208.608 103.298 209.824L97.2503 201.568C101.09 192.992 105.186 185.152 109.538 178.048C113.89 170.944 118.53 164.48 123.458 158.656L133.154 160.192C132.386 162.24 129.506 173.824 124.514 194.944C128.482 193.664 132.898 191.424 137.762 188.224ZM118.082 196.864C118.338 195.072 118.85 191.936 119.618 187.456C120.45 182.976 121.57 177.056 122.978 169.696C118.754 174.496 114.786 179.52 111.074 184.768C107.426 190.016 103.97 195.488 100.706 201.184C101.794 201.184 102.978 201.088 104.258 200.896C105.538 200.64 107.202 200.192 109.25 199.552L118.082 196.864ZM165.896 191.296C164.168 194.368 162.056 197.376 159.56 200.32C157.064 203.2 154.184 206.08 150.92 208.96L146.408 200.704C148.712 195.904 150.888 190.72 152.936 185.152C154.984 179.52 156.84 173.408 158.504 166.816C157.352 168.096 156.008 169.728 154.472 171.712C153 173.632 151.4 175.808 149.672 178.24C148.008 180.608 146.28 183.136 144.488 185.824C142.76 188.512 141.032 191.232 139.304 193.984C137.64 196.672 136.04 199.296 134.504 201.856C133.032 204.416 131.752 206.752 130.664 208.864L129.32 201.76C132.072 193.952 134.408 186.72 136.328 180.064C138.248 173.344 139.752 167.008 140.84 161.056L146.984 164.32C145.512 169.504 143.784 174.72 141.799 179.968C139.816 185.152 137.608 190.336 135.176 195.52C138.12 190.016 141.608 184.448 145.64 178.816C149.672 173.184 154.28 167.36 159.464 161.344L166.472 164.512C163.016 176.736 158.376 188.928 152.552 201.088C156.264 199.552 160.712 196.288 165.896 191.296Z" fill="url(#paint0_linear_1_13)"/>
</g>
<g filter="url(#filter1_ddi_1_13)">
<path d="M81.312 32.328C70.24 39.56 52.672 48.008 28.608 57.672C24.704 68.168 21.312 77.832 18.432 86.664C15.616 95.496 13.28 103.784 11.424 111.528C11.68 106.728 12.704 100.072 14.496 91.56C16.288 82.984 18.848 72.488 22.176 60.072L6.72 65.832C8.384 65.064 10.528 64.072 13.152 62.856C15.84 61.64 19.04 60.104 22.752 58.248C24.352 52.616 25.888 47.368 27.36 42.504C28.896 37.64 30.4 33.032 31.872 28.68C29.12 28.808 26.528 28.968 24.096 29.16C21.728 29.352 19.488 29.608 17.376 29.928L16.416 19.08C17.632 19.016 18.816 18.984 19.968 18.984C21.184 18.984 22.432 18.984 23.712 18.984C32.672 18.984 41.76 19.4 50.976 20.232C60.256 21.064 69.888 22.344 79.872 24.072L81.312 32.328ZM72.48 30.888C62.176 29.352 51.168 28.584 39.456 28.584H35.136L38.976 32.136C37.568 35.08 36.096 38.472 34.56 42.312C33.024 46.088 31.328 50.344 29.472 55.08C49.888 45.224 64.224 37.16 72.48 30.888ZM80.4893 76.296C78.7613 79.368 76.6493 82.376 74.1533 85.32C71.6573 88.2 68.7773 91.08 65.5133 93.96L61.0013 85.704C63.6253 79.24 65.9293 73.224 67.9133 67.656C69.9613 62.088 71.6893 56.808 73.0973 51.816C71.5613 55.464 69.7053 59.24 67.5293 63.144C65.4173 66.984 63.1133 70.76 60.6173 74.472C58.1853 78.184 55.6253 81.704 52.9373 85.032C50.3133 88.36 47.7533 91.304 45.2573 93.864L43.9133 86.76C45.7693 79.016 47.6253 71.816 49.4813 65.16C51.3373 58.44 53.3213 52.072 55.4333 46.056L61.5773 49.32C59.0813 55.336 56.7773 61.16 54.6653 66.792C52.6173 72.424 50.7933 77.928 49.1933 83.304C52.0733 80.424 54.6333 77.608 56.8733 74.856C59.1133 72.104 61.0973 69.384 62.8253 66.696C63.9133 65.032 65.3853 62.536 67.2413 59.208C69.0973 55.816 71.3693 51.528 74.0573 46.344L81.0653 49.512C77.2253 61.032 72.5853 73.224 67.1453 86.088C70.8573 84.552 75.3053 81.288 80.4893 76.296ZM102.508 76.104C100.524 79.304 98.1558 82.632 95.4038 86.088C92.7158 89.48 89.6438 93.096 86.1878 96.936L80.4278 91.368C81.8358 85.544 83.4358 79.848 85.2278 74.28C87.0838 68.712 89.2278 63.112 91.6598 57.48L89.0678 54.888L74.3798 73.8L90.7958 39.24L90.3158 49.608L96.1718 55.08C92.0118 68.2 89.5798 78.696 88.8758 86.568C91.3718 85.288 95.9158 81.8 102.508 76.104ZM129.359 54.792C125.263 60.232 120.783 65.64 115.919 71.016C111.119 76.392 105.807 81.832 99.9833 87.336C99.9193 87.912 99.6953 88.936 99.3113 90.408C98.9273 91.816 98.4473 93.416 97.8713 95.208C97.2953 97 96.6873 98.824 96.0473 100.68C95.4713 102.6 94.8953 104.328 94.3193 105.864C93.8072 107.464 93.3912 108.744 93.0712 109.704C92.6872 110.728 92.4952 111.208 92.4952 111.144C93.7112 104.168 95.1193 95.944 96.7193 86.472C98.3833 77 100.271 65.992 102.383 53.448L111.695 45.384C114.255 45.512 116.975 45.704 119.855 45.96C122.799 46.216 125.935 46.536 129.263 46.92L129.359 54.792ZM123.023 52.008C122.255 51.88 121.295 51.784 120.143 51.72C118.991 51.656 117.679 51.624 116.207 51.624C113.839 51.624 111.759 51.72 109.967 51.912C107.535 61.704 104.335 72.936 100.367 85.608C104.079 80.808 107.791 75.656 111.503 70.152C115.279 64.648 119.119 58.6 123.023 52.008ZM149.809 20.616C148.849 23.112 147.729 26.28 146.449 30.12C145.169 33.96 143.793 38.248 142.321 42.984C140.913 47.656 139.409 52.616 137.809 57.864C136.273 63.112 134.737 68.424 133.201 73.8C131.729 79.112 130.289 84.328 128.881 89.448C127.473 94.568 126.225 99.336 125.137 103.752C127.249 85.128 129.617 68.776 132.241 54.696C134.929 40.616 137.841 28.552 140.977 18.504L149.809 20.616ZM159.054 78.984C156.366 82.12 153.422 85 150.222 87.624C147.022 90.184 143.534 92.616 139.758 94.92L134.382 89.544C136.43 80.968 138.542 73.128 140.718 66.024C142.894 58.92 145.134 52.36 147.438 46.344L155.598 45.864C157.07 47.528 158.414 49.224 159.63 50.952C160.846 52.616 161.902 54.376 162.798 56.232C155.886 63.208 149.71 68.712 144.27 72.744L138.126 87.528C141.454 86.568 144.846 85.384 148.302 83.976C151.758 82.568 155.342 80.904 159.054 78.984ZM153.102 52.296L146.286 67.656C148.014 65.736 149.71 63.624 151.374 61.32C153.038 59.016 154.67 56.488 156.27 53.736L153.102 52.296ZM77.856 226.528C71.968 222.24 66.912 218.56 62.688 215.488C58.464 212.416 54.784 209.76 51.648 207.52C48.576 205.28 45.92 203.392 43.68 201.856C41.44 200.32 39.328 198.912 37.344 197.632C35.424 196.288 33.472 195.008 31.488 193.792C29.568 192.576 27.392 191.168 24.96 189.568C22.464 197.12 20.288 203.968 18.432 210.112C16.576 216.256 15.072 221.728 13.92 226.528C14.112 222.944 14.848 217.92 16.128 211.456C17.408 204.992 19.2 196.992 21.504 187.456C18.944 185.984 16.64 184.704 14.592 183.616C12.544 182.464 10.72 181.536 9.12 180.832C10.848 180.064 13.024 179.072 15.648 177.856C18.272 176.64 21.44 175.104 25.152 173.248C26.624 167.616 28.096 162.368 29.568 157.504C31.104 152.64 32.704 148.032 34.368 143.68C31.616 143.808 29.024 143.968 26.592 144.16C24.16 144.352 21.92 144.608 19.872 144.928L18.816 134.08C20.032 134.016 21.216 133.984 22.368 133.984C23.584 133.984 24.832 133.984 26.112 133.984C35.072 133.984 44.192 134.4 53.472 135.232C62.816 136.064 72.416 137.344 82.272 139.072L83.712 147.328C72.832 154.496 55.232 162.944 30.912 172.672C30.208 174.464 29.504 176.352 28.8 178.336C28.16 180.256 27.488 182.24 26.784 184.288C31.904 187.808 38.688 193.088 47.136 200.128C55.648 207.104 65.888 215.904 77.856 226.528ZM74.784 145.888C69.6 145.12 64.32 144.544 58.944 144.16C53.568 143.776 47.904 143.584 41.952 143.584H37.632L41.28 147.136C39.872 150.08 38.4 153.472 36.864 157.312C35.328 161.088 33.664 165.344 31.872 170.08C42.176 165.088 50.848 160.64 57.888 156.736C64.992 152.768 70.624 149.152 74.784 145.888ZM24.672 175.072C23.264 175.648 21.92 176.192 20.64 176.704C19.36 177.152 18.016 177.6 16.608 178.048C17.504 178.56 18.464 179.104 19.488 179.68C20.576 180.256 21.728 180.928 22.944 181.696C23.2 180.48 23.456 179.36 23.712 178.336C23.968 177.248 24.288 176.16 24.672 175.072ZM86.3978 193.984C83.7098 197.12 80.7658 200 77.5658 202.624C74.3658 205.184 70.8778 207.616 67.1018 209.92L61.7258 204.544C63.7738 195.968 65.8858 188.128 68.0618 181.024C70.2378 173.92 72.4778 167.36 74.7818 161.344L82.9418 160.864C84.4138 162.528 85.7578 164.224 86.9738 165.952C88.1898 167.616 89.2458 169.376 90.1418 171.232C83.2298 178.208 77.0538 183.712 71.6138 187.744L65.4698 202.528C68.7978 201.568 72.1898 200.384 75.6458 198.976C79.1018 197.568 82.6858 195.904 86.3978 193.984ZM80.4458 167.296L73.6298 182.656C75.3578 180.736 77.0538 178.624 78.7178 176.32C80.3818 174.016 82.0138 171.488 83.6138 168.736L80.4458 167.296ZM111.269 142.816L102.821 157.12L103.205 142.624L111.269 142.816ZM104.357 191.296C102.565 194.432 100.421 197.472 97.9245 200.416C95.4285 203.296 92.5485 206.144 89.2845 208.96L84.9645 200.704C85.7325 198.912 86.7245 196.384 87.9405 193.12C89.1565 189.792 90.3725 186.24 91.5885 182.464C92.8685 178.688 94.0525 174.912 95.1405 171.136C96.2925 167.36 97.1885 164.096 97.8285 161.344L104.741 164.512C101.413 176.672 96.8365 188.864 91.0125 201.088C94.7885 199.488 99.2365 196.224 104.357 191.296ZM137.762 188.224C135.202 191.104 132.706 193.6 130.274 195.712C127.906 197.76 125.506 199.488 123.074 200.896C122.626 203.328 122.05 206.304 121.346 209.824C120.642 213.408 119.81 217.664 118.85 222.592L111.458 226.528C110.37 225.12 109.186 223.904 107.906 222.88C106.626 221.92 105.058 221.056 103.202 220.288C101.346 219.52 99.0743 218.784 96.3863 218.08C93.7622 217.376 90.5302 216.64 86.6902 215.872C88.5462 215.552 90.4342 215.296 92.3542 215.104C94.2742 214.976 96.1303 214.912 97.9223 214.912C104.77 214.912 110.21 215.904 114.242 217.888C114.306 217.248 114.498 216.256 114.818 214.912C115.138 213.632 115.458 212.256 115.778 210.784C116.162 209.312 116.514 207.936 116.834 206.656C117.154 205.312 117.346 204.288 117.41 203.584C115.81 204.48 113.826 205.44 111.458 206.464C109.154 207.488 106.434 208.608 103.298 209.824L97.2503 201.568C101.09 192.992 105.186 185.152 109.538 178.048C113.89 170.944 118.53 164.48 123.458 158.656L133.154 160.192C132.386 162.24 129.506 173.824 124.514 194.944C128.482 193.664 132.898 191.424 137.762 188.224ZM118.082 196.864C118.338 195.072 118.85 191.936 119.618 187.456C120.45 182.976 121.57 177.056 122.978 169.696C118.754 174.496 114.786 179.52 111.074 184.768C107.426 190.016 103.97 195.488 100.706 201.184C101.794 201.184 102.978 201.088 104.258 200.896C105.538 200.64 107.202 200.192 109.25 199.552L118.082 196.864ZM165.896 191.296C164.168 194.368 162.056 197.376 159.56 200.32C157.064 203.2 154.184 206.08 150.92 208.96L146.408 200.704C148.712 195.904 150.888 190.72 152.936 185.152C154.984 179.52 156.84 173.408 158.504 166.816C157.352 168.096 156.008 169.728 154.472 171.712C153 173.632 151.4 175.808 149.672 178.24C148.008 180.608 146.28 183.136 144.488 185.824C142.76 188.512 141.032 191.232 139.304 193.984C137.64 196.672 136.04 199.296 134.504 201.856C133.032 204.416 131.752 206.752 130.664 208.864L129.32 201.76C132.072 193.952 134.408 186.72 136.328 180.064C138.248 173.344 139.752 167.008 140.84 161.056L146.984 164.32C145.512 169.504 143.784 174.72 141.799 179.968C139.816 185.152 137.608 190.336 135.176 195.52C138.12 190.016 141.608 184.448 145.64 178.816C149.672 173.184 154.28 167.36 159.464 161.344L166.472 164.512C163.016 176.736 158.376 188.928 152.552 201.088C156.264 199.552 160.712 196.288 165.896 191.296Z" fill="url(#paint1_linear_1_13)" fill-opacity="0.4" shape-rendering="crispEdges"/>
</g>
<defs>
<filter id="filter0_ddi_1_13" x="2.72" y="18.504" width="167.751" height="216.024" filterUnits="userSpaceOnUse" color-interpolation-filters="sRGB">
<feFlood flood-opacity="0" result="BackgroundImageFix"/>
<feColorMatrix in="SourceAlpha" type="matrix" values="0 0 0 0 0 0 0 0 0 0 0 0 0 0 0 0 0 0 127 0" result="hardAlpha"/>
<feOffset dy="4"/>
<feGaussianBlur stdDeviation="2"/>
<feComposite in2="hardAlpha" operator="out"/>
<feColorMatrix type="matrix" values="0 0 0 0 0 0 0 0 0 0 0 0 0 0 0 0 0 0 0.25 0"/>
<feBlend mode="normal" in2="BackgroundImageFix" result="effect1_dropShadow_1_13"/>
<feColorMatrix in="SourceAlpha" type="matrix" values="0 0 0 0 0 0 0 0 0 0 0 0 0 0 0 0 0 0 127 0" result="hardAlpha"/>
<feOffset dy="4"/>
<feGaussianBlur stdDeviation="2"/>
<feComposite in2="hardAlpha" operator="out"/>
<feColorMatrix type="matrix" values="0 0 0 0 0 0 0 0 0 0 0 0 0 0 0 0 0 0 0.25 0"/>
<feBlend mode="normal" in2="effect1_dropShadow_1_13" result="effect2_dropShadow_1_13"/>
<feBlend mode="normal" in="SourceGraphic" in2="effect2_dropShadow_1_13" result="shape"/>
<feColorMatrix in="SourceAlpha" type="matrix" values="0 0 0 0 0 0 0 0 0 0 0 0 0 0 0 0 0 0 127 0" result="hardAlpha"/>
<feMorphology radius="1" operator="erode" in="SourceAlpha" result="effect3_innerShadow_1_13"/>
<feOffset/>
<feGaussianBlur stdDeviation="50"/>
<feComposite in2="hardAlpha" operator="arithmetic" k2="-1" k3="1"/>
<feColorMatrix type="matrix" values="0 0 0 0 0 0 0 0 0 0 0 0 0 0 0 0 0 0 0.1 0"/>
<feBlend mode="normal" in2="shape" result="effect3_innerShadow_1_13"/>
</filter>
<filter id="filter1_ddi_1_13" x="2.72" y="18.504" width="167.751" height="216.024" filterUnits="userSpaceOnUse" color-interpolation-filters="sRGB">
<feFlood flood-opacity="0" result="BackgroundImageFix"/>
<feColorMatrix in="SourceAlpha" type="matrix" values="0 0 0 0 0 0 0 0 0 0 0 0 0 0 0 0 0 0 127 0" result="hardAlpha"/>
<feOffset dy="4"/>
<feGaussianBlur stdDeviation="2"/>
<feComposite in2="hardAlpha" operator="out"/>
<feColorMatrix type="matrix" values="0 0 0 0 0 0 0 0 0 0 0 0 0 0 0 0 0 0 0.25 0"/>
<feBlend mode="normal" in2="BackgroundImageFix" result="effect1_dropShadow_1_13"/>
<feColorMatrix in="SourceAlpha" type="matrix" values="0 0 0 0 0 0 0 0 0 0 0 0 0 0 0 0 0 0 127 0" result="hardAlpha"/>
<feOffset dy="4"/>
<feGaussianBlur stdDeviation="2"/>
<feComposite in2="hardAlpha" operator="out"/>
<feColorMatrix type="matrix" values="0 0 0 0 0 0 0 0 0 0 0 0 0 0 0 0 0 0 0.25 0"/>
<feBlend mode="normal" in2="effect1_dropShadow_1_13" result="effect2_dropShadow_1_13"/>
<feBlend mode="normal" in="SourceGraphic" in2="effect2_dropShadow_1_13" result="shape"/>
<feColorMatrix in="SourceAlpha" type="matrix" values="0 0 0 0 0 0 0 0 0 0 0 0 0 0 0 0 0 0 127 0" result="hardAlpha"/>
<feMorphology radius="1" operator="erode" in="SourceAlpha" result="effect3_innerShadow_1_13"/>
<feOffset/>
<feGaussianBlur stdDeviation="50"/>
<feComposite in2="hardAlpha" operator="arithmetic" k2="-1" k3="1"/>
<feColorMatrix type="matrix" values="0 0 0 0 0 0 0 0 0 0 0 0 0 0 0 0 0 0 0.1 0"/>
<feBlend mode="normal" in2="shape" result="effect3_innerShadow_1_13"/>
</filter>
<linearGradient id="paint0_linear_1_13" x1="106.5" y1="254" x2="106.5" y2="0" gradientUnits="userSpaceOnUse">
<stop offset="1" stop-color="#BE00DD"/>
</linearGradient>
<linearGradient id="paint1_linear_1_13" x1="-2.51079e-07" y1="217.843" x2="223.311" y2="204.136" gradientUnits="userSpaceOnUse">
<stop stop-color="white"/>
<stop offset="0.204609" stop-color="#CBCBCB"/>
<stop offset="0.419425" stop-color="#949494"/>
<stop offset="0.628627" stop-color="#D6C6C6"/>
<stop offset="0.74" stop-color="#CACACA"/>
<stop offset="0.783944" stop-color="#B9AFAF"/>
<stop offset="0.81" stop-color="#303030"/>
<stop offset="0.833586" stop-color="#DBDBDB"/>
<stop offset="0.914416" stop-color="white"/>
<stop offset="1" stop-color="white"/>
</linearGradient>
</defs>
</svg>
